%TF.GenerationSoftware,KiCad,Pcbnew,5.1.10-88a1d61d58~90~ubuntu20.04.1*%
%TF.CreationDate,2021-09-29T11:39:30-04:00*%
%TF.ProjectId,example1,6578616d-706c-4653-912e-6b696361645f,rev?*%
%TF.SameCoordinates,Original*%
%TF.FileFunction,Copper,L1,Top*%
%TF.FilePolarity,Positive*%
%FSLAX46Y46*%
G04 Gerber Fmt 4.6, Leading zero omitted, Abs format (unit mm)*
G04 Created by KiCad (PCBNEW 5.1.10-88a1d61d58~90~ubuntu20.04.1) date 2021-09-29 11:39:30*
%MOMM*%
%LPD*%
G01*
G04 APERTURE LIST*
%TA.AperFunction,ComponentPad*%
%ADD10C,1.400000*%
%TD*%
%TA.AperFunction,ComponentPad*%
%ADD11O,1.400000X1.400000*%
%TD*%
%TA.AperFunction,SMDPad,CuDef*%
%ADD12R,2.200000X2.200000*%
%TD*%
%TA.AperFunction,ComponentPad*%
%ADD13R,2.000000X2.000000*%
%TD*%
%TA.AperFunction,ComponentPad*%
%ADD14O,2.000000X2.000000*%
%TD*%
%TA.AperFunction,ComponentPad*%
%ADD15R,2.800000X2.800000*%
%TD*%
%TA.AperFunction,ComponentPad*%
%ADD16O,2.800000X2.800000*%
%TD*%
%TA.AperFunction,ComponentPad*%
%ADD17R,1.700000X1.700000*%
%TD*%
%TA.AperFunction,ComponentPad*%
%ADD18O,1.700000X1.700000*%
%TD*%
%TA.AperFunction,ComponentPad*%
%ADD19C,1.300000*%
%TD*%
%TA.AperFunction,ComponentPad*%
%ADD20R,1.300000X1.300000*%
%TD*%
%TA.AperFunction,Conductor*%
%ADD21C,0.254000*%
%TD*%
%TA.AperFunction,Conductor*%
%ADD22C,0.100000*%
%TD*%
G04 APERTURE END LIST*
D10*
%TO.P,33k1,1*%
%TO.N,Net-(33k1-Pad1)*%
X925200000Y175260000D03*
D11*
%TO.P,33k1,2*%
%TO.N,Net-(33k1-Pad2)*%
X927100000Y175260000D03*
%TD*%
D12*
%TO.P,BZ1,2*%
%TO.N,Net-(BZ1-Pad2)*%
X934970000Y138430000D03*
%TO.P,BZ1,1*%
%TO.N,Net-(BZ1-Pad1)*%
X921770000Y138430000D03*
%TD*%
D13*
%TO.P,C1,1*%
%TO.N,Net-(33k1-Pad1)*%
X914400000Y172720000D03*
D14*
%TO.P,C1,2*%
%TO.N,Net-(C1-Pad2)*%
X914400000Y187720000D03*
%TD*%
D15*
%TO.P,D1,1*%
%TO.N,Net-(D1-Pad1)*%
X916940000Y161290000D03*
D16*
%TO.P,D1,2*%
%TO.N,Net-(33k1-Pad1)*%
X924560000Y161290000D03*
%TD*%
D17*
%TO.P,J1,1*%
%TO.N,Net-(BZ1-Pad1)*%
X901700000Y138430000D03*
D18*
%TO.P,J1,2*%
%TO.N,Net-(J1-Pad2)*%
X901700000Y135890000D03*
%TO.P,J1,3*%
%TO.N,Net-(J1-Pad3)*%
X901700000Y133350000D03*
%TD*%
D19*
%TO.P,Q1,2*%
%TO.N,Net-(33k1-Pad2)*%
X933460000Y191770000D03*
%TO.P,Q1,3*%
%TO.N,Net-(BZ1-Pad2)*%
X934720000Y190500000D03*
D20*
%TO.P,Q1,1*%
%TO.N,Net-(C1-Pad2)*%
X932180000Y190500000D03*
%TD*%
D11*
%TO.P,TH1,2*%
%TO.N,Net-(D1-Pad1)*%
X903600000Y161290000D03*
D10*
%TO.P,TH1,1*%
%TO.N,Net-(BZ1-Pad1)*%
X901700000Y161290000D03*
%TD*%
D21*
%TO.N,Net-(33k1-Pad1)*%
X941680001Y125103706D02*
X892211186Y123866985D01*
X892463858Y139280000D01*
X900211928Y139280000D01*
X900211928Y137580000D01*
X900224188Y137455518D01*
X900260498Y137335820D01*
X900319463Y137225506D01*
X900398815Y137128815D01*
X900495506Y137049463D01*
X900605820Y136990498D01*
X900678380Y136968487D01*
X900546525Y136836632D01*
X900384010Y136593411D01*
X900272068Y136323158D01*
X900215000Y136036260D01*
X900215000Y135743740D01*
X900272068Y135456842D01*
X900384010Y135186589D01*
X900546525Y134943368D01*
X900753368Y134736525D01*
X900927760Y134620000D01*
X900753368Y134503475D01*
X900546525Y134296632D01*
X900384010Y134053411D01*
X900272068Y133783158D01*
X900215000Y133496260D01*
X900215000Y133203740D01*
X900272068Y132916842D01*
X900384010Y132646589D01*
X900546525Y132403368D01*
X900753368Y132196525D01*
X900996589Y132034010D01*
X901266842Y131922068D01*
X901553740Y131865000D01*
X901846260Y131865000D01*
X902133158Y131922068D01*
X902403411Y132034010D01*
X902646632Y132196525D01*
X902853475Y132403368D01*
X903015990Y132646589D01*
X903127932Y132916842D01*
X903185000Y133203740D01*
X903185000Y133496260D01*
X903127932Y133783158D01*
X903015990Y134053411D01*
X902853475Y134296632D01*
X902646632Y134503475D01*
X902472240Y134620000D01*
X902646632Y134736525D01*
X902853475Y134943368D01*
X903015990Y135186589D01*
X903127932Y135456842D01*
X903185000Y135743740D01*
X903185000Y136036260D01*
X903127932Y136323158D01*
X903015990Y136593411D01*
X902853475Y136836632D01*
X902721620Y136968487D01*
X902794180Y136990498D01*
X902904494Y137049463D01*
X903001185Y137128815D01*
X903080537Y137225506D01*
X903139502Y137335820D01*
X903175812Y137455518D01*
X903188072Y137580000D01*
X903188072Y139280000D01*
X903175812Y139404482D01*
X903139502Y139524180D01*
X903136392Y139530000D01*
X920031928Y139530000D01*
X920031928Y137330000D01*
X920044188Y137205518D01*
X920080498Y137085820D01*
X920139463Y136975506D01*
X920218815Y136878815D01*
X920315506Y136799463D01*
X920425820Y136740498D01*
X920545518Y136704188D01*
X920670000Y136691928D01*
X922870000Y136691928D01*
X922994482Y136704188D01*
X923114180Y136740498D01*
X923224494Y136799463D01*
X923321185Y136878815D01*
X923400537Y136975506D01*
X923459502Y137085820D01*
X923495812Y137205518D01*
X923508072Y137330000D01*
X923508072Y139530000D01*
X933231928Y139530000D01*
X933231928Y137330000D01*
X933244188Y137205518D01*
X933280498Y137085820D01*
X933339463Y136975506D01*
X933418815Y136878815D01*
X933515506Y136799463D01*
X933625820Y136740498D01*
X933745518Y136704188D01*
X933870000Y136691928D01*
X936070000Y136691928D01*
X936194482Y136704188D01*
X936314180Y136740498D01*
X936424494Y136799463D01*
X936521185Y136878815D01*
X936600537Y136975506D01*
X936659502Y137085820D01*
X936695812Y137205518D01*
X936708072Y137330000D01*
X936708072Y139530000D01*
X936695812Y139654482D01*
X936659502Y139774180D01*
X936600537Y139884494D01*
X936521185Y139981185D01*
X936424494Y140060537D01*
X936314180Y140119502D01*
X936194482Y140155812D01*
X936070000Y140168072D01*
X933870000Y140168072D01*
X933745518Y140155812D01*
X933625820Y140119502D01*
X933515506Y140060537D01*
X933418815Y139981185D01*
X933339463Y139884494D01*
X933280498Y139774180D01*
X933244188Y139654482D01*
X933231928Y139530000D01*
X923508072Y139530000D01*
X923495812Y139654482D01*
X923459502Y139774180D01*
X923400537Y139884494D01*
X923321185Y139981185D01*
X923224494Y140060537D01*
X923114180Y140119502D01*
X922994482Y140155812D01*
X922870000Y140168072D01*
X920670000Y140168072D01*
X920545518Y140155812D01*
X920425820Y140119502D01*
X920315506Y140060537D01*
X920218815Y139981185D01*
X920139463Y139884494D01*
X920080498Y139774180D01*
X920044188Y139654482D01*
X920031928Y139530000D01*
X903136392Y139530000D01*
X903080537Y139634494D01*
X903001185Y139731185D01*
X902904494Y139810537D01*
X902794180Y139869502D01*
X902674482Y139905812D01*
X902550000Y139918072D01*
X900850000Y139918072D01*
X900725518Y139905812D01*
X900605820Y139869502D01*
X900495506Y139810537D01*
X900398815Y139731185D01*
X900319463Y139634494D01*
X900260498Y139524180D01*
X900224188Y139404482D01*
X900211928Y139280000D01*
X892463858Y139280000D01*
X892826833Y161421486D01*
X900365000Y161421486D01*
X900365000Y161158514D01*
X900416304Y160900595D01*
X900516939Y160657641D01*
X900663038Y160438987D01*
X900848987Y160253038D01*
X901067641Y160106939D01*
X901310595Y160006304D01*
X901568514Y159955000D01*
X901831486Y159955000D01*
X902089405Y160006304D01*
X902332359Y160106939D01*
X902551013Y160253038D01*
X902650000Y160352025D01*
X902748987Y160253038D01*
X902967641Y160106939D01*
X903210595Y160006304D01*
X903468514Y159955000D01*
X903731486Y159955000D01*
X903989405Y160006304D01*
X904232359Y160106939D01*
X904451013Y160253038D01*
X904636962Y160438987D01*
X904783061Y160657641D01*
X904883696Y160900595D01*
X904935000Y161158514D01*
X904935000Y161421486D01*
X904883696Y161679405D01*
X904783061Y161922359D01*
X904636962Y162141013D01*
X904451013Y162326962D01*
X904232359Y162473061D01*
X903989405Y162573696D01*
X903731486Y162625000D01*
X903468514Y162625000D01*
X903210595Y162573696D01*
X902967641Y162473061D01*
X902748987Y162326962D01*
X902650000Y162227975D01*
X902551013Y162326962D01*
X902332359Y162473061D01*
X902089405Y162573696D01*
X901831486Y162625000D01*
X901568514Y162625000D01*
X901310595Y162573696D01*
X901067641Y162473061D01*
X900848987Y162326962D01*
X900663038Y162141013D01*
X900516939Y161922359D01*
X900416304Y161679405D01*
X900365000Y161421486D01*
X892826833Y161421486D01*
X892847628Y162690000D01*
X914901928Y162690000D01*
X914901928Y159890000D01*
X914914188Y159765518D01*
X914950498Y159645820D01*
X915009463Y159535506D01*
X915088815Y159438815D01*
X915185506Y159359463D01*
X915295820Y159300498D01*
X915415518Y159264188D01*
X915540000Y159251928D01*
X918340000Y159251928D01*
X918464482Y159264188D01*
X918584180Y159300498D01*
X918694494Y159359463D01*
X918791185Y159438815D01*
X918870537Y159535506D01*
X918929502Y159645820D01*
X918965812Y159765518D01*
X918978072Y159890000D01*
X918978072Y160846840D01*
X922573840Y160846840D01*
X922662358Y160555021D01*
X922842208Y160198932D01*
X923088072Y159884772D01*
X923390501Y159624614D01*
X923737873Y159428456D01*
X924116839Y159303836D01*
X924433000Y159417713D01*
X924433000Y161163000D01*
X924687000Y161163000D01*
X924687000Y159417713D01*
X925003161Y159303836D01*
X925382127Y159428456D01*
X925729499Y159624614D01*
X926031928Y159884772D01*
X926277792Y160198932D01*
X926457642Y160555021D01*
X926546160Y160846840D01*
X926431947Y161163000D01*
X924687000Y161163000D01*
X924433000Y161163000D01*
X922688053Y161163000D01*
X922573840Y160846840D01*
X918978072Y160846840D01*
X918978072Y161733160D01*
X922573840Y161733160D01*
X922688053Y161417000D01*
X924433000Y161417000D01*
X924433000Y163162287D01*
X924687000Y163162287D01*
X924687000Y161417000D01*
X926431947Y161417000D01*
X926546160Y161733160D01*
X926457642Y162024979D01*
X926277792Y162381068D01*
X926031928Y162695228D01*
X925729499Y162955386D01*
X925382127Y163151544D01*
X925003161Y163276164D01*
X924687000Y163162287D01*
X924433000Y163162287D01*
X924116839Y163276164D01*
X923737873Y163151544D01*
X923390501Y162955386D01*
X923088072Y162695228D01*
X922842208Y162381068D01*
X922662358Y162024979D01*
X922573840Y161733160D01*
X918978072Y161733160D01*
X918978072Y162690000D01*
X918965812Y162814482D01*
X918929502Y162934180D01*
X918870537Y163044494D01*
X918791185Y163141185D01*
X918694494Y163220537D01*
X918584180Y163279502D01*
X918464482Y163315812D01*
X918340000Y163328072D01*
X915540000Y163328072D01*
X915415518Y163315812D01*
X915295820Y163279502D01*
X915185506Y163220537D01*
X915088815Y163141185D01*
X915009463Y163044494D01*
X914950498Y162934180D01*
X914914188Y162814482D01*
X914901928Y162690000D01*
X892847628Y162690000D01*
X892995661Y171720000D01*
X912761928Y171720000D01*
X912774188Y171595518D01*
X912810498Y171475820D01*
X912869463Y171365506D01*
X912948815Y171268815D01*
X913045506Y171189463D01*
X913155820Y171130498D01*
X913275518Y171094188D01*
X913400000Y171081928D01*
X914114250Y171085000D01*
X914273000Y171243750D01*
X914273000Y172593000D01*
X914527000Y172593000D01*
X914527000Y171243750D01*
X914685750Y171085000D01*
X915400000Y171081928D01*
X915524482Y171094188D01*
X915644180Y171130498D01*
X915754494Y171189463D01*
X915851185Y171268815D01*
X915930537Y171365506D01*
X915989502Y171475820D01*
X916025812Y171595518D01*
X916038072Y171720000D01*
X916035000Y172434250D01*
X915876250Y172593000D01*
X914527000Y172593000D01*
X914273000Y172593000D01*
X912923750Y172593000D01*
X912765000Y172434250D01*
X912761928Y171720000D01*
X892995661Y171720000D01*
X893028447Y173720000D01*
X912761928Y173720000D01*
X912765000Y173005750D01*
X912923750Y172847000D01*
X914273000Y172847000D01*
X914273000Y174196250D01*
X914527000Y174196250D01*
X914527000Y172847000D01*
X915876250Y172847000D01*
X916035000Y173005750D01*
X916038072Y173720000D01*
X916025812Y173844482D01*
X915989502Y173964180D01*
X915930537Y174074494D01*
X915851185Y174171185D01*
X915754494Y174250537D01*
X915644180Y174309502D01*
X915547825Y174338731D01*
X924458336Y174338731D01*
X924517797Y174104963D01*
X924756242Y173994066D01*
X925011740Y173931817D01*
X925274473Y173920610D01*
X925534344Y173960875D01*
X925781366Y174051065D01*
X925882203Y174104963D01*
X925941664Y174338731D01*
X925200000Y175080395D01*
X924458336Y174338731D01*
X915547825Y174338731D01*
X915524482Y174345812D01*
X915400000Y174358072D01*
X914685750Y174355000D01*
X914527000Y174196250D01*
X914273000Y174196250D01*
X914114250Y174355000D01*
X913400000Y174358072D01*
X913275518Y174345812D01*
X913155820Y174309502D01*
X913045506Y174250537D01*
X912948815Y174171185D01*
X912869463Y174074494D01*
X912810498Y173964180D01*
X912774188Y173844482D01*
X912761928Y173720000D01*
X893028447Y173720000D01*
X893052472Y175185527D01*
X923860610Y175185527D01*
X923900875Y174925656D01*
X923991065Y174678634D01*
X924044963Y174577797D01*
X924278731Y174518336D01*
X925020395Y175260000D01*
X925379605Y175260000D01*
X925849746Y174789859D01*
X925916939Y174627641D01*
X926063038Y174408987D01*
X926248987Y174223038D01*
X926467641Y174076939D01*
X926710595Y173976304D01*
X926968514Y173925000D01*
X927231486Y173925000D01*
X927489405Y173976304D01*
X927732359Y174076939D01*
X927951013Y174223038D01*
X928136962Y174408987D01*
X928283061Y174627641D01*
X928383696Y174870595D01*
X928435000Y175128514D01*
X928435000Y175391486D01*
X928383696Y175649405D01*
X928283061Y175892359D01*
X928136962Y176111013D01*
X927951013Y176296962D01*
X927732359Y176443061D01*
X927489405Y176543696D01*
X927231486Y176595000D01*
X926968514Y176595000D01*
X926710595Y176543696D01*
X926467641Y176443061D01*
X926248987Y176296962D01*
X926063038Y176111013D01*
X925916939Y175892359D01*
X925849746Y175730141D01*
X925379605Y175260000D01*
X925020395Y175260000D01*
X924278731Y176001664D01*
X924044963Y175942203D01*
X923934066Y175703758D01*
X923871817Y175448260D01*
X923860610Y175185527D01*
X893052472Y175185527D01*
X893068795Y176181269D01*
X924458336Y176181269D01*
X925200000Y175439605D01*
X925941664Y176181269D01*
X925882203Y176415037D01*
X925643758Y176525934D01*
X925388260Y176588183D01*
X925125527Y176599390D01*
X924865656Y176559125D01*
X924618634Y176468935D01*
X924517797Y176415037D01*
X924458336Y176181269D01*
X893068795Y176181269D01*
X893260595Y187881033D01*
X912765000Y187881033D01*
X912765000Y187558967D01*
X912827832Y187243088D01*
X912951082Y186945537D01*
X913130013Y186677748D01*
X913357748Y186450013D01*
X913625537Y186271082D01*
X913923088Y186147832D01*
X914238967Y186085000D01*
X914561033Y186085000D01*
X914876912Y186147832D01*
X915174463Y186271082D01*
X915442252Y186450013D01*
X915669987Y186677748D01*
X915848918Y186945537D01*
X915972168Y187243088D01*
X916035000Y187558967D01*
X916035000Y187881033D01*
X915972168Y188196912D01*
X915848918Y188494463D01*
X915669987Y188762252D01*
X915442252Y188989987D01*
X915174463Y189168918D01*
X914876912Y189292168D01*
X914561033Y189355000D01*
X914238967Y189355000D01*
X913923088Y189292168D01*
X913625537Y189168918D01*
X913357748Y188989987D01*
X913130013Y188762252D01*
X912951082Y188494463D01*
X912827832Y188196912D01*
X912765000Y187881033D01*
X893260595Y187881033D01*
X893314184Y191150000D01*
X930891928Y191150000D01*
X930891928Y189850000D01*
X930904188Y189725518D01*
X930940498Y189605820D01*
X930999463Y189495506D01*
X931078815Y189398815D01*
X931175506Y189319463D01*
X931285820Y189260498D01*
X931405518Y189224188D01*
X931530000Y189211928D01*
X932830000Y189211928D01*
X932954482Y189224188D01*
X933074180Y189260498D01*
X933184494Y189319463D01*
X933281185Y189398815D01*
X933360537Y189495506D01*
X933419502Y189605820D01*
X933455812Y189725518D01*
X933468072Y189850000D01*
X933468072Y190207172D01*
X933484381Y190125179D01*
X933581247Y189891324D01*
X933721875Y189680860D01*
X933900860Y189501875D01*
X934111324Y189361247D01*
X934345179Y189264381D01*
X934593439Y189215000D01*
X934846561Y189215000D01*
X935094821Y189264381D01*
X935328676Y189361247D01*
X935539140Y189501875D01*
X935718125Y189680860D01*
X935858753Y189891324D01*
X935955619Y190125179D01*
X936005000Y190373439D01*
X936005000Y190626561D01*
X935955619Y190874821D01*
X935858753Y191108676D01*
X935718125Y191319140D01*
X935539140Y191498125D01*
X935328676Y191638753D01*
X935094821Y191735619D01*
X934846561Y191785000D01*
X934745000Y191785000D01*
X934745000Y191896561D01*
X934695619Y192144821D01*
X934598753Y192378676D01*
X934458125Y192589140D01*
X934279140Y192768125D01*
X934068676Y192908753D01*
X933834821Y193005619D01*
X933586561Y193055000D01*
X933333439Y193055000D01*
X933085179Y193005619D01*
X932851324Y192908753D01*
X932640860Y192768125D01*
X932461875Y192589140D01*
X932321247Y192378676D01*
X932224381Y192144821D01*
X932175000Y191896561D01*
X932175000Y191788072D01*
X931530000Y191788072D01*
X931405518Y191775812D01*
X931285820Y191739502D01*
X931175506Y191680537D01*
X931078815Y191601185D01*
X930999463Y191504494D01*
X930940498Y191394180D01*
X930904188Y191274482D01*
X930891928Y191150000D01*
X893314184Y191150000D01*
X893390417Y195800128D01*
X900735000Y195800128D01*
X900735000Y195359872D01*
X900820890Y194928075D01*
X900989369Y194521331D01*
X901233962Y194155271D01*
X901545271Y193843962D01*
X901911331Y193599369D01*
X902318075Y193430890D01*
X902749872Y193345000D01*
X903190128Y193345000D01*
X903621925Y193430890D01*
X904028669Y193599369D01*
X904394729Y193843962D01*
X904706038Y194155271D01*
X904950631Y194521331D01*
X905119110Y194928075D01*
X905205000Y195359872D01*
X905205000Y195800128D01*
X905119110Y196231925D01*
X904950631Y196638669D01*
X904706038Y197004729D01*
X904394729Y197316038D01*
X904028669Y197560631D01*
X903621925Y197729110D01*
X903190128Y197815000D01*
X902749872Y197815000D01*
X902318075Y197729110D01*
X901911331Y197560631D01*
X901545271Y197316038D01*
X901233962Y197004729D01*
X900989369Y196638669D01*
X900820890Y196231925D01*
X900735000Y195800128D01*
X893390417Y195800128D01*
X893459268Y200000000D01*
X941680000Y200000000D01*
X941680001Y125103706D01*
%TA.AperFunction,Conductor*%
D22*
G36*
X941680001Y125103706D02*
G01*
X892211186Y123866985D01*
X892463858Y139280000D01*
X900211928Y139280000D01*
X900211928Y137580000D01*
X900224188Y137455518D01*
X900260498Y137335820D01*
X900319463Y137225506D01*
X900398815Y137128815D01*
X900495506Y137049463D01*
X900605820Y136990498D01*
X900678380Y136968487D01*
X900546525Y136836632D01*
X900384010Y136593411D01*
X900272068Y136323158D01*
X900215000Y136036260D01*
X900215000Y135743740D01*
X900272068Y135456842D01*
X900384010Y135186589D01*
X900546525Y134943368D01*
X900753368Y134736525D01*
X900927760Y134620000D01*
X900753368Y134503475D01*
X900546525Y134296632D01*
X900384010Y134053411D01*
X900272068Y133783158D01*
X900215000Y133496260D01*
X900215000Y133203740D01*
X900272068Y132916842D01*
X900384010Y132646589D01*
X900546525Y132403368D01*
X900753368Y132196525D01*
X900996589Y132034010D01*
X901266842Y131922068D01*
X901553740Y131865000D01*
X901846260Y131865000D01*
X902133158Y131922068D01*
X902403411Y132034010D01*
X902646632Y132196525D01*
X902853475Y132403368D01*
X903015990Y132646589D01*
X903127932Y132916842D01*
X903185000Y133203740D01*
X903185000Y133496260D01*
X903127932Y133783158D01*
X903015990Y134053411D01*
X902853475Y134296632D01*
X902646632Y134503475D01*
X902472240Y134620000D01*
X902646632Y134736525D01*
X902853475Y134943368D01*
X903015990Y135186589D01*
X903127932Y135456842D01*
X903185000Y135743740D01*
X903185000Y136036260D01*
X903127932Y136323158D01*
X903015990Y136593411D01*
X902853475Y136836632D01*
X902721620Y136968487D01*
X902794180Y136990498D01*
X902904494Y137049463D01*
X903001185Y137128815D01*
X903080537Y137225506D01*
X903139502Y137335820D01*
X903175812Y137455518D01*
X903188072Y137580000D01*
X903188072Y139280000D01*
X903175812Y139404482D01*
X903139502Y139524180D01*
X903136392Y139530000D01*
X920031928Y139530000D01*
X920031928Y137330000D01*
X920044188Y137205518D01*
X920080498Y137085820D01*
X920139463Y136975506D01*
X920218815Y136878815D01*
X920315506Y136799463D01*
X920425820Y136740498D01*
X920545518Y136704188D01*
X920670000Y136691928D01*
X922870000Y136691928D01*
X922994482Y136704188D01*
X923114180Y136740498D01*
X923224494Y136799463D01*
X923321185Y136878815D01*
X923400537Y136975506D01*
X923459502Y137085820D01*
X923495812Y137205518D01*
X923508072Y137330000D01*
X923508072Y139530000D01*
X933231928Y139530000D01*
X933231928Y137330000D01*
X933244188Y137205518D01*
X933280498Y137085820D01*
X933339463Y136975506D01*
X933418815Y136878815D01*
X933515506Y136799463D01*
X933625820Y136740498D01*
X933745518Y136704188D01*
X933870000Y136691928D01*
X936070000Y136691928D01*
X936194482Y136704188D01*
X936314180Y136740498D01*
X936424494Y136799463D01*
X936521185Y136878815D01*
X936600537Y136975506D01*
X936659502Y137085820D01*
X936695812Y137205518D01*
X936708072Y137330000D01*
X936708072Y139530000D01*
X936695812Y139654482D01*
X936659502Y139774180D01*
X936600537Y139884494D01*
X936521185Y139981185D01*
X936424494Y140060537D01*
X936314180Y140119502D01*
X936194482Y140155812D01*
X936070000Y140168072D01*
X933870000Y140168072D01*
X933745518Y140155812D01*
X933625820Y140119502D01*
X933515506Y140060537D01*
X933418815Y139981185D01*
X933339463Y139884494D01*
X933280498Y139774180D01*
X933244188Y139654482D01*
X933231928Y139530000D01*
X923508072Y139530000D01*
X923495812Y139654482D01*
X923459502Y139774180D01*
X923400537Y139884494D01*
X923321185Y139981185D01*
X923224494Y140060537D01*
X923114180Y140119502D01*
X922994482Y140155812D01*
X922870000Y140168072D01*
X920670000Y140168072D01*
X920545518Y140155812D01*
X920425820Y140119502D01*
X920315506Y140060537D01*
X920218815Y139981185D01*
X920139463Y139884494D01*
X920080498Y139774180D01*
X920044188Y139654482D01*
X920031928Y139530000D01*
X903136392Y139530000D01*
X903080537Y139634494D01*
X903001185Y139731185D01*
X902904494Y139810537D01*
X902794180Y139869502D01*
X902674482Y139905812D01*
X902550000Y139918072D01*
X900850000Y139918072D01*
X900725518Y139905812D01*
X900605820Y139869502D01*
X900495506Y139810537D01*
X900398815Y139731185D01*
X900319463Y139634494D01*
X900260498Y139524180D01*
X900224188Y139404482D01*
X900211928Y139280000D01*
X892463858Y139280000D01*
X892826833Y161421486D01*
X900365000Y161421486D01*
X900365000Y161158514D01*
X900416304Y160900595D01*
X900516939Y160657641D01*
X900663038Y160438987D01*
X900848987Y160253038D01*
X901067641Y160106939D01*
X901310595Y160006304D01*
X901568514Y159955000D01*
X901831486Y159955000D01*
X902089405Y160006304D01*
X902332359Y160106939D01*
X902551013Y160253038D01*
X902650000Y160352025D01*
X902748987Y160253038D01*
X902967641Y160106939D01*
X903210595Y160006304D01*
X903468514Y159955000D01*
X903731486Y159955000D01*
X903989405Y160006304D01*
X904232359Y160106939D01*
X904451013Y160253038D01*
X904636962Y160438987D01*
X904783061Y160657641D01*
X904883696Y160900595D01*
X904935000Y161158514D01*
X904935000Y161421486D01*
X904883696Y161679405D01*
X904783061Y161922359D01*
X904636962Y162141013D01*
X904451013Y162326962D01*
X904232359Y162473061D01*
X903989405Y162573696D01*
X903731486Y162625000D01*
X903468514Y162625000D01*
X903210595Y162573696D01*
X902967641Y162473061D01*
X902748987Y162326962D01*
X902650000Y162227975D01*
X902551013Y162326962D01*
X902332359Y162473061D01*
X902089405Y162573696D01*
X901831486Y162625000D01*
X901568514Y162625000D01*
X901310595Y162573696D01*
X901067641Y162473061D01*
X900848987Y162326962D01*
X900663038Y162141013D01*
X900516939Y161922359D01*
X900416304Y161679405D01*
X900365000Y161421486D01*
X892826833Y161421486D01*
X892847628Y162690000D01*
X914901928Y162690000D01*
X914901928Y159890000D01*
X914914188Y159765518D01*
X914950498Y159645820D01*
X915009463Y159535506D01*
X915088815Y159438815D01*
X915185506Y159359463D01*
X915295820Y159300498D01*
X915415518Y159264188D01*
X915540000Y159251928D01*
X918340000Y159251928D01*
X918464482Y159264188D01*
X918584180Y159300498D01*
X918694494Y159359463D01*
X918791185Y159438815D01*
X918870537Y159535506D01*
X918929502Y159645820D01*
X918965812Y159765518D01*
X918978072Y159890000D01*
X918978072Y160846840D01*
X922573840Y160846840D01*
X922662358Y160555021D01*
X922842208Y160198932D01*
X923088072Y159884772D01*
X923390501Y159624614D01*
X923737873Y159428456D01*
X924116839Y159303836D01*
X924433000Y159417713D01*
X924433000Y161163000D01*
X924687000Y161163000D01*
X924687000Y159417713D01*
X925003161Y159303836D01*
X925382127Y159428456D01*
X925729499Y159624614D01*
X926031928Y159884772D01*
X926277792Y160198932D01*
X926457642Y160555021D01*
X926546160Y160846840D01*
X926431947Y161163000D01*
X924687000Y161163000D01*
X924433000Y161163000D01*
X922688053Y161163000D01*
X922573840Y160846840D01*
X918978072Y160846840D01*
X918978072Y161733160D01*
X922573840Y161733160D01*
X922688053Y161417000D01*
X924433000Y161417000D01*
X924433000Y163162287D01*
X924687000Y163162287D01*
X924687000Y161417000D01*
X926431947Y161417000D01*
X926546160Y161733160D01*
X926457642Y162024979D01*
X926277792Y162381068D01*
X926031928Y162695228D01*
X925729499Y162955386D01*
X925382127Y163151544D01*
X925003161Y163276164D01*
X924687000Y163162287D01*
X924433000Y163162287D01*
X924116839Y163276164D01*
X923737873Y163151544D01*
X923390501Y162955386D01*
X923088072Y162695228D01*
X922842208Y162381068D01*
X922662358Y162024979D01*
X922573840Y161733160D01*
X918978072Y161733160D01*
X918978072Y162690000D01*
X918965812Y162814482D01*
X918929502Y162934180D01*
X918870537Y163044494D01*
X918791185Y163141185D01*
X918694494Y163220537D01*
X918584180Y163279502D01*
X918464482Y163315812D01*
X918340000Y163328072D01*
X915540000Y163328072D01*
X915415518Y163315812D01*
X915295820Y163279502D01*
X915185506Y163220537D01*
X915088815Y163141185D01*
X915009463Y163044494D01*
X914950498Y162934180D01*
X914914188Y162814482D01*
X914901928Y162690000D01*
X892847628Y162690000D01*
X892995661Y171720000D01*
X912761928Y171720000D01*
X912774188Y171595518D01*
X912810498Y171475820D01*
X912869463Y171365506D01*
X912948815Y171268815D01*
X913045506Y171189463D01*
X913155820Y171130498D01*
X913275518Y171094188D01*
X913400000Y171081928D01*
X914114250Y171085000D01*
X914273000Y171243750D01*
X914273000Y172593000D01*
X914527000Y172593000D01*
X914527000Y171243750D01*
X914685750Y171085000D01*
X915400000Y171081928D01*
X915524482Y171094188D01*
X915644180Y171130498D01*
X915754494Y171189463D01*
X915851185Y171268815D01*
X915930537Y171365506D01*
X915989502Y171475820D01*
X916025812Y171595518D01*
X916038072Y171720000D01*
X916035000Y172434250D01*
X915876250Y172593000D01*
X914527000Y172593000D01*
X914273000Y172593000D01*
X912923750Y172593000D01*
X912765000Y172434250D01*
X912761928Y171720000D01*
X892995661Y171720000D01*
X893028447Y173720000D01*
X912761928Y173720000D01*
X912765000Y173005750D01*
X912923750Y172847000D01*
X914273000Y172847000D01*
X914273000Y174196250D01*
X914527000Y174196250D01*
X914527000Y172847000D01*
X915876250Y172847000D01*
X916035000Y173005750D01*
X916038072Y173720000D01*
X916025812Y173844482D01*
X915989502Y173964180D01*
X915930537Y174074494D01*
X915851185Y174171185D01*
X915754494Y174250537D01*
X915644180Y174309502D01*
X915547825Y174338731D01*
X924458336Y174338731D01*
X924517797Y174104963D01*
X924756242Y173994066D01*
X925011740Y173931817D01*
X925274473Y173920610D01*
X925534344Y173960875D01*
X925781366Y174051065D01*
X925882203Y174104963D01*
X925941664Y174338731D01*
X925200000Y175080395D01*
X924458336Y174338731D01*
X915547825Y174338731D01*
X915524482Y174345812D01*
X915400000Y174358072D01*
X914685750Y174355000D01*
X914527000Y174196250D01*
X914273000Y174196250D01*
X914114250Y174355000D01*
X913400000Y174358072D01*
X913275518Y174345812D01*
X913155820Y174309502D01*
X913045506Y174250537D01*
X912948815Y174171185D01*
X912869463Y174074494D01*
X912810498Y173964180D01*
X912774188Y173844482D01*
X912761928Y173720000D01*
X893028447Y173720000D01*
X893052472Y175185527D01*
X923860610Y175185527D01*
X923900875Y174925656D01*
X923991065Y174678634D01*
X924044963Y174577797D01*
X924278731Y174518336D01*
X925020395Y175260000D01*
X925379605Y175260000D01*
X925849746Y174789859D01*
X925916939Y174627641D01*
X926063038Y174408987D01*
X926248987Y174223038D01*
X926467641Y174076939D01*
X926710595Y173976304D01*
X926968514Y173925000D01*
X927231486Y173925000D01*
X927489405Y173976304D01*
X927732359Y174076939D01*
X927951013Y174223038D01*
X928136962Y174408987D01*
X928283061Y174627641D01*
X928383696Y174870595D01*
X928435000Y175128514D01*
X928435000Y175391486D01*
X928383696Y175649405D01*
X928283061Y175892359D01*
X928136962Y176111013D01*
X927951013Y176296962D01*
X927732359Y176443061D01*
X927489405Y176543696D01*
X927231486Y176595000D01*
X926968514Y176595000D01*
X926710595Y176543696D01*
X926467641Y176443061D01*
X926248987Y176296962D01*
X926063038Y176111013D01*
X925916939Y175892359D01*
X925849746Y175730141D01*
X925379605Y175260000D01*
X925020395Y175260000D01*
X924278731Y176001664D01*
X924044963Y175942203D01*
X923934066Y175703758D01*
X923871817Y175448260D01*
X923860610Y175185527D01*
X893052472Y175185527D01*
X893068795Y176181269D01*
X924458336Y176181269D01*
X925200000Y175439605D01*
X925941664Y176181269D01*
X925882203Y176415037D01*
X925643758Y176525934D01*
X925388260Y176588183D01*
X925125527Y176599390D01*
X924865656Y176559125D01*
X924618634Y176468935D01*
X924517797Y176415037D01*
X924458336Y176181269D01*
X893068795Y176181269D01*
X893260595Y187881033D01*
X912765000Y187881033D01*
X912765000Y187558967D01*
X912827832Y187243088D01*
X912951082Y186945537D01*
X913130013Y186677748D01*
X913357748Y186450013D01*
X913625537Y186271082D01*
X913923088Y186147832D01*
X914238967Y186085000D01*
X914561033Y186085000D01*
X914876912Y186147832D01*
X915174463Y186271082D01*
X915442252Y186450013D01*
X915669987Y186677748D01*
X915848918Y186945537D01*
X915972168Y187243088D01*
X916035000Y187558967D01*
X916035000Y187881033D01*
X915972168Y188196912D01*
X915848918Y188494463D01*
X915669987Y188762252D01*
X915442252Y188989987D01*
X915174463Y189168918D01*
X914876912Y189292168D01*
X914561033Y189355000D01*
X914238967Y189355000D01*
X913923088Y189292168D01*
X913625537Y189168918D01*
X913357748Y188989987D01*
X913130013Y188762252D01*
X912951082Y188494463D01*
X912827832Y188196912D01*
X912765000Y187881033D01*
X893260595Y187881033D01*
X893314184Y191150000D01*
X930891928Y191150000D01*
X930891928Y189850000D01*
X930904188Y189725518D01*
X930940498Y189605820D01*
X930999463Y189495506D01*
X931078815Y189398815D01*
X931175506Y189319463D01*
X931285820Y189260498D01*
X931405518Y189224188D01*
X931530000Y189211928D01*
X932830000Y189211928D01*
X932954482Y189224188D01*
X933074180Y189260498D01*
X933184494Y189319463D01*
X933281185Y189398815D01*
X933360537Y189495506D01*
X933419502Y189605820D01*
X933455812Y189725518D01*
X933468072Y189850000D01*
X933468072Y190207172D01*
X933484381Y190125179D01*
X933581247Y189891324D01*
X933721875Y189680860D01*
X933900860Y189501875D01*
X934111324Y189361247D01*
X934345179Y189264381D01*
X934593439Y189215000D01*
X934846561Y189215000D01*
X935094821Y189264381D01*
X935328676Y189361247D01*
X935539140Y189501875D01*
X935718125Y189680860D01*
X935858753Y189891324D01*
X935955619Y190125179D01*
X936005000Y190373439D01*
X936005000Y190626561D01*
X935955619Y190874821D01*
X935858753Y191108676D01*
X935718125Y191319140D01*
X935539140Y191498125D01*
X935328676Y191638753D01*
X935094821Y191735619D01*
X934846561Y191785000D01*
X934745000Y191785000D01*
X934745000Y191896561D01*
X934695619Y192144821D01*
X934598753Y192378676D01*
X934458125Y192589140D01*
X934279140Y192768125D01*
X934068676Y192908753D01*
X933834821Y193005619D01*
X933586561Y193055000D01*
X933333439Y193055000D01*
X933085179Y193005619D01*
X932851324Y192908753D01*
X932640860Y192768125D01*
X932461875Y192589140D01*
X932321247Y192378676D01*
X932224381Y192144821D01*
X932175000Y191896561D01*
X932175000Y191788072D01*
X931530000Y191788072D01*
X931405518Y191775812D01*
X931285820Y191739502D01*
X931175506Y191680537D01*
X931078815Y191601185D01*
X930999463Y191504494D01*
X930940498Y191394180D01*
X930904188Y191274482D01*
X930891928Y191150000D01*
X893314184Y191150000D01*
X893390417Y195800128D01*
X900735000Y195800128D01*
X900735000Y195359872D01*
X900820890Y194928075D01*
X900989369Y194521331D01*
X901233962Y194155271D01*
X901545271Y193843962D01*
X901911331Y193599369D01*
X902318075Y193430890D01*
X902749872Y193345000D01*
X903190128Y193345000D01*
X903621925Y193430890D01*
X904028669Y193599369D01*
X904394729Y193843962D01*
X904706038Y194155271D01*
X904950631Y194521331D01*
X905119110Y194928075D01*
X905205000Y195359872D01*
X905205000Y195800128D01*
X905119110Y196231925D01*
X904950631Y196638669D01*
X904706038Y197004729D01*
X904394729Y197316038D01*
X904028669Y197560631D01*
X903621925Y197729110D01*
X903190128Y197815000D01*
X902749872Y197815000D01*
X902318075Y197729110D01*
X901911331Y197560631D01*
X901545271Y197316038D01*
X901233962Y197004729D01*
X900989369Y196638669D01*
X900820890Y196231925D01*
X900735000Y195800128D01*
X893390417Y195800128D01*
X893459268Y200000000D01*
X941680000Y200000000D01*
X941680001Y125103706D01*
G37*
%TD.AperFunction*%
%TD*%
M02*
