%TF.GenerationSoftware,KiCad,Pcbnew,5.1.10-88a1d61d58~90~ubuntu20.04.1*%
%TF.CreationDate,2021-09-29T11:39:30-04:00*%
%TF.ProjectId,example1,6578616d-706c-4653-912e-6b696361645f,rev?*%
%TF.SameCoordinates,Original*%
%TF.FileFunction,Legend,Top*%
%TF.FilePolarity,Positive*%
%FSLAX46Y46*%
G04 Gerber Fmt 4.6, Leading zero omitted, Abs format (unit mm)*
G04 Created by KiCad (PCBNEW 5.1.10-88a1d61d58~90~ubuntu20.04.1) date 2021-09-29 11:39:30*
%MOMM*%
%LPD*%
G01*
G04 APERTURE LIST*
%ADD10C,0.150000*%
%ADD11C,0.120000*%
G04 APERTURE END LIST*
D10*
X896501428Y177871428D02*
X896168095Y177871428D01*
X896168095Y177347619D02*
X896168095Y178347619D01*
X896644285Y178347619D01*
X897025238Y177347619D02*
X897025238Y178014285D01*
X897025238Y178347619D02*
X896977619Y178300000D01*
X897025238Y178252380D01*
X897072857Y178300000D01*
X897025238Y178347619D01*
X897025238Y178252380D01*
X897501428Y177347619D02*
X897501428Y178014285D01*
X897501428Y177823809D02*
X897549047Y177919047D01*
X897596666Y177966666D01*
X897691904Y178014285D01*
X897787142Y178014285D01*
X898072857Y177395238D02*
X898168095Y177347619D01*
X898358571Y177347619D01*
X898453809Y177395238D01*
X898501428Y177490476D01*
X898501428Y177538095D01*
X898453809Y177633333D01*
X898358571Y177680952D01*
X898215714Y177680952D01*
X898120476Y177728571D01*
X898072857Y177823809D01*
X898072857Y177871428D01*
X898120476Y177966666D01*
X898215714Y178014285D01*
X898358571Y178014285D01*
X898453809Y177966666D01*
X898787142Y178014285D02*
X899168095Y178014285D01*
X898930000Y178347619D02*
X898930000Y177490476D01*
X898977619Y177395238D01*
X899072857Y177347619D01*
X899168095Y177347619D01*
X900834761Y177442857D02*
X900787142Y177395238D01*
X900644285Y177347619D01*
X900549047Y177347619D01*
X900406190Y177395238D01*
X900310952Y177490476D01*
X900263333Y177585714D01*
X900215714Y177776190D01*
X900215714Y177919047D01*
X900263333Y178109523D01*
X900310952Y178204761D01*
X900406190Y178300000D01*
X900549047Y178347619D01*
X900644285Y178347619D01*
X900787142Y178300000D01*
X900834761Y178252380D01*
X901263333Y177347619D02*
X901263333Y178014285D01*
X901263333Y178347619D02*
X901215714Y178300000D01*
X901263333Y178252380D01*
X901310952Y178300000D01*
X901263333Y178347619D01*
X901263333Y178252380D01*
X901739523Y177347619D02*
X901739523Y178014285D01*
X901739523Y177823809D02*
X901787142Y177919047D01*
X901834761Y177966666D01*
X901930000Y178014285D01*
X902025238Y178014285D01*
X902787142Y177395238D02*
X902691904Y177347619D01*
X902501428Y177347619D01*
X902406190Y177395238D01*
X902358571Y177442857D01*
X902310952Y177538095D01*
X902310952Y177823809D01*
X902358571Y177919047D01*
X902406190Y177966666D01*
X902501428Y178014285D01*
X902691904Y178014285D01*
X902787142Y177966666D01*
X903644285Y178014285D02*
X903644285Y177347619D01*
X903215714Y178014285D02*
X903215714Y177490476D01*
X903263333Y177395238D01*
X903358571Y177347619D01*
X903501428Y177347619D01*
X903596666Y177395238D01*
X903644285Y177442857D01*
X904120476Y177347619D02*
X904120476Y178014285D01*
X904120476Y178347619D02*
X904072857Y178300000D01*
X904120476Y178252380D01*
X904168095Y178300000D01*
X904120476Y178347619D01*
X904120476Y178252380D01*
X904453809Y178014285D02*
X904834761Y178014285D01*
X904596666Y178347619D02*
X904596666Y177490476D01*
X904644285Y177395238D01*
X904739523Y177347619D01*
X904834761Y177347619D01*
D11*
%TO.C,33k1*%
X925520095Y174510641D02*
G75*
G02*
X925617133Y175960000I-320095J749359D01*
G01*
%TO.C,BZ1*%
X922770000Y133830000D02*
X922770000Y137080000D01*
X922770000Y143030000D02*
X933970000Y143030000D01*
X933970000Y133830000D02*
X922770000Y133830000D01*
X933970000Y137080000D02*
X933970000Y133830000D01*
X933970000Y143030000D02*
X933970000Y139780000D01*
X922770000Y139780000D02*
X922770000Y143030000D01*
%TO.C,C1*%
X914400000Y186480000D02*
X914400000Y185840000D01*
X914400000Y173960000D02*
X914400000Y174600000D01*
X918520000Y177600000D02*
X918520000Y185840000D01*
X917770000Y176850000D02*
X918520000Y177600000D01*
X918520000Y176100000D02*
X917770000Y176850000D01*
X918520000Y174600000D02*
X918520000Y176100000D01*
X910280000Y177600000D02*
X910280000Y185840000D01*
X911030000Y176850000D02*
X910280000Y177600000D01*
X910280000Y176100000D02*
X911030000Y176850000D01*
X910280000Y174600000D02*
X910280000Y176100000D01*
X910280000Y185840000D02*
X918520000Y185840000D01*
X910280000Y174600000D02*
X918520000Y174600000D01*
X911450000Y173600000D02*
X912950000Y173600000D01*
X912200000Y172850000D02*
X912200000Y174350000D01*
%TO.C,D1*%
X921825000Y161290000D02*
X922860000Y161290000D01*
X921825000Y161290000D02*
G75*
G03*
X921825000Y161290000I-4885000J0D01*
G01*
%TO.C,J1*%
X900370000Y139760000D02*
X901700000Y139760000D01*
X900370000Y138430000D02*
X900370000Y139760000D01*
X900370000Y137160000D02*
X903030000Y137160000D01*
X903030000Y137160000D02*
X903030000Y132020000D01*
X900370000Y137160000D02*
X900370000Y132020000D01*
X900370000Y132020000D02*
X903030000Y132020000D01*
%TO.C,Q1*%
X931530000Y188800000D02*
X935380000Y188800000D01*
X935418611Y188809878D02*
G75*
G03*
X931530000Y188800000I-1948611J1690122D01*
G01*
%TO.C,TH1*%
X902020095Y160540641D02*
G75*
G02*
X902117133Y161990000I-320095J749359D01*
G01*
%TO.C,REF\u002A\u002A*%
D10*
X910526666Y196397619D02*
X910193333Y196873809D01*
X909955238Y196397619D02*
X909955238Y197397619D01*
X910336190Y197397619D01*
X910431428Y197350000D01*
X910479047Y197302380D01*
X910526666Y197207142D01*
X910526666Y197064285D01*
X910479047Y196969047D01*
X910431428Y196921428D01*
X910336190Y196873809D01*
X909955238Y196873809D01*
X910955238Y196921428D02*
X911288571Y196921428D01*
X911431428Y196397619D02*
X910955238Y196397619D01*
X910955238Y197397619D01*
X911431428Y197397619D01*
X912193333Y196921428D02*
X911860000Y196921428D01*
X911860000Y196397619D02*
X911860000Y197397619D01*
X912336190Y197397619D01*
X912860000Y197397619D02*
X912860000Y197159523D01*
X912621904Y197254761D02*
X912860000Y197159523D01*
X913098095Y197254761D01*
X912717142Y196969047D02*
X912860000Y197159523D01*
X913002857Y196969047D01*
X913621904Y197397619D02*
X913621904Y197159523D01*
X913383809Y197254761D02*
X913621904Y197159523D01*
X913860000Y197254761D01*
X913479047Y196969047D02*
X913621904Y197159523D01*
X913764761Y196969047D01*
%TO.C,33k1*%
X924459523Y177727619D02*
X925078571Y177727619D01*
X924745238Y177346666D01*
X924888095Y177346666D01*
X924983333Y177299047D01*
X925030952Y177251428D01*
X925078571Y177156190D01*
X925078571Y176918095D01*
X925030952Y176822857D01*
X924983333Y176775238D01*
X924888095Y176727619D01*
X924602380Y176727619D01*
X924507142Y176775238D01*
X924459523Y176822857D01*
X925411904Y177727619D02*
X926030952Y177727619D01*
X925697619Y177346666D01*
X925840476Y177346666D01*
X925935714Y177299047D01*
X925983333Y177251428D01*
X926030952Y177156190D01*
X926030952Y176918095D01*
X925983333Y176822857D01*
X925935714Y176775238D01*
X925840476Y176727619D01*
X925554761Y176727619D01*
X925459523Y176775238D01*
X925411904Y176822857D01*
X926459523Y176727619D02*
X926459523Y177727619D01*
X926554761Y177108571D02*
X926840476Y176727619D01*
X926840476Y177394285D02*
X926459523Y177013333D01*
X927792857Y176727619D02*
X927221428Y176727619D01*
X927507142Y176727619D02*
X927507142Y177727619D01*
X927411904Y177584761D01*
X927316666Y177489523D01*
X927221428Y177441904D01*
%TO.C,BZ1*%
X927489047Y133001428D02*
X927631904Y132953809D01*
X927679523Y132906190D01*
X927727142Y132810952D01*
X927727142Y132668095D01*
X927679523Y132572857D01*
X927631904Y132525238D01*
X927536666Y132477619D01*
X927155714Y132477619D01*
X927155714Y133477619D01*
X927489047Y133477619D01*
X927584285Y133430000D01*
X927631904Y133382380D01*
X927679523Y133287142D01*
X927679523Y133191904D01*
X927631904Y133096666D01*
X927584285Y133049047D01*
X927489047Y133001428D01*
X927155714Y133001428D01*
X928060476Y133477619D02*
X928727142Y133477619D01*
X928060476Y132477619D01*
X928727142Y132477619D01*
X929631904Y132477619D02*
X929060476Y132477619D01*
X929346190Y132477619D02*
X929346190Y133477619D01*
X929250952Y133334761D01*
X929155714Y133239523D01*
X929060476Y133191904D01*
%TO.C,C1*%
X909637142Y180053333D02*
X909684761Y180005714D01*
X909732380Y179862857D01*
X909732380Y179767619D01*
X909684761Y179624761D01*
X909589523Y179529523D01*
X909494285Y179481904D01*
X909303809Y179434285D01*
X909160952Y179434285D01*
X908970476Y179481904D01*
X908875238Y179529523D01*
X908780000Y179624761D01*
X908732380Y179767619D01*
X908732380Y179862857D01*
X908780000Y180005714D01*
X908827619Y180053333D01*
X909732380Y181005714D02*
X909732380Y180434285D01*
X909732380Y180720000D02*
X908732380Y180720000D01*
X908875238Y180624761D01*
X908970476Y180529523D01*
X909018095Y180434285D01*
%TO.C,D1*%
X920011904Y166722619D02*
X920011904Y167722619D01*
X920250000Y167722619D01*
X920392857Y167675000D01*
X920488095Y167579761D01*
X920535714Y167484523D01*
X920583333Y167294047D01*
X920583333Y167151190D01*
X920535714Y166960714D01*
X920488095Y166865476D01*
X920392857Y166770238D01*
X920250000Y166722619D01*
X920011904Y166722619D01*
X921535714Y166722619D02*
X920964285Y166722619D01*
X921250000Y166722619D02*
X921250000Y167722619D01*
X921154761Y167579761D01*
X921059523Y167484523D01*
X920964285Y167436904D01*
X924321904Y158723333D02*
X924798095Y158723333D01*
X924226666Y158437619D02*
X924560000Y159437619D01*
X924893333Y158437619D01*
%TO.C,J1*%
X901366666Y141307619D02*
X901366666Y140593333D01*
X901319047Y140450476D01*
X901223809Y140355238D01*
X901080952Y140307619D01*
X900985714Y140307619D01*
X902366666Y140307619D02*
X901795238Y140307619D01*
X902080952Y140307619D02*
X902080952Y141307619D01*
X901985714Y141164761D01*
X901890476Y141069523D01*
X901795238Y141021904D01*
%TO.C,Q1*%
X933374761Y193512380D02*
X933279523Y193560000D01*
X933184285Y193655238D01*
X933041428Y193798095D01*
X932946190Y193845714D01*
X932850952Y193845714D01*
X932898571Y193607619D02*
X932803333Y193655238D01*
X932708095Y193750476D01*
X932660476Y193940952D01*
X932660476Y194274285D01*
X932708095Y194464761D01*
X932803333Y194560000D01*
X932898571Y194607619D01*
X933089047Y194607619D01*
X933184285Y194560000D01*
X933279523Y194464761D01*
X933327142Y194274285D01*
X933327142Y193940952D01*
X933279523Y193750476D01*
X933184285Y193655238D01*
X933089047Y193607619D01*
X932898571Y193607619D01*
X934279523Y193607619D02*
X933708095Y193607619D01*
X933993809Y193607619D02*
X933993809Y194607619D01*
X933898571Y194464761D01*
X933803333Y194369523D01*
X933708095Y194321904D01*
%TO.C,TH1*%
X901364285Y163757619D02*
X901935714Y163757619D01*
X901650000Y162757619D02*
X901650000Y163757619D01*
X902269047Y162757619D02*
X902269047Y163757619D01*
X902269047Y163281428D02*
X902840476Y163281428D01*
X902840476Y162757619D02*
X902840476Y163757619D01*
X903840476Y162757619D02*
X903269047Y162757619D01*
X903554761Y162757619D02*
X903554761Y163757619D01*
X903459523Y163614761D01*
X903364285Y163519523D01*
X903269047Y163471904D01*
%TD*%
M02*
